<svg xmlns="http://www.w3.org/2000/svg" xmlns:xlink="http://www.w3.org/1999/xlink" version="1.1" id="Layer_1" x="0px" y="0px" width="20.997px" height="21.998px" viewBox="0 0 20.997 21.998" enable-background="new 0 0 20.997 21.998" xml:space="preserve"><path fill="#7F8587" d="M0 0v6.007h9.999V0H0z M6.999 4.004H3V2.002h1v1.001h2V2.002h1V4.004z"/><path fill="#7F8587" d="M0 7.008v5.979h9.999V7.008H0z M6.999 11.012H3v-2.03h1v1.001h2V8.983h1V11.012z"/><path fill="#7F8587" d="M10.999 0v6.007h9.999V0H10.999z M17.998 4.004h-4V2.002h1v1.001h2V2.002h1V4.004z"/><path fill="#7F8587" d="M10.999 7.008v5.979h9.999V7.008H10.999z M17.998 11.012h-4v-2.03h1v1.001h2V8.983h1V11.012z"/><path fill="#7F8587" d="M0 14.016v5.979h9.999v-5.979H0z M6.999 18.02H3v-2.03h1v1.001h2v-1.001h1V18.02z"/><path fill="#7F8587" d="M10.999 14.016v5.979h9.999v-5.979H10.999z M17.998 18.02h-4v-2.03h1v1.001h2v-1.001h1V18.02z"/><path fill-rule="evenodd" clip-rule="evenodd" fill="#7F8587" d="M0 19.998v2h1l1-2H0z"/><path fill-rule="evenodd" clip-rule="evenodd" fill="#7F8587" d="M20.997 19.998v2h-1l-1-2H20.997z"/></svg>