<svg xmlns="http://www.w3.org/2000/svg" xmlns:xlink="http://www.w3.org/1999/xlink" version="1.1" id="Layer_1" x="0px" y="0px" width="67.889px" height="70px" viewBox="-6.448 -10.504 67.889 70" enable-background="new -6.448 -10.504 67.889 70" xml:space="preserve"><g id="articles" display="none"><path display="inline" fill="#DB5640" d="M27.497 0c15.186 0 27.5 12.3 27.5 27.497S42.683 55 27.5 55 C12.311 55 0 42.7 0 27.497C0 12.3 12.3 0 27.5 0z"/><g display="inline"><path fill="#F9F9F3" d="M33.27 13.288l-16.508 3.778c-0.978 0.228-1.589 1.222-1.365 2.214l5.001 21.8 c0.225 1 1.2 1.6 2.2 1.385l16.508-3.778c0.977-0.228 1.59-1.221 1.364-2.214L35.45 14.7 C35.226 13.7 34.2 13.1 33.3 13.288z M33.273 15.746l4.691 20.423L22.51 39.7l-4.691-20.423L33.273 15.746z"/><path fill="#F9F9F3" d="M20.199 21.871c0.128 0.564-0.219 1.127-0.774 1.256l-3.665 0.857c-0.556 0.13-1.11-0.222-1.238-0.786l0 0 c-0.128-0.564 0.219-1.127 0.774-1.257l3.665-0.857C19.516 21 20.1 21.3 20.2 21.871L20.199 21.871z"/><path fill="#F9F9F3" d="M21.283 26.65c0.128 0.565-0.219 1.127-0.774 1.257l-3.665 0.857c-0.556 0.13-1.11-0.222-1.238-0.786l0 0 c-0.128-0.564 0.219-1.127 0.774-1.257l3.665-0.857C20.601 25.7 21.2 26.1 21.3 26.65L21.283 26.65z"/><path fill="#F9F9F3" d="M22.367 31.429c0.128 0.564-0.219 1.127-0.774 1.257l-3.665 0.857c-0.556 0.13-1.109-0.222-1.238-0.786 l0 0c-0.128-0.564 0.219-1.127 0.775-1.256l3.665-0.857C21.685 30.5 22.2 30.9 22.4 31.429L22.367 31.429z"/><path fill="#F9F9F3" d="M23.451 36.208c0.128 0.564-0.219 1.127-0.774 1.257l-3.665 0.857c-0.556 0.13-1.11-0.222-1.238-0.786l0 0 c-0.128-0.564 0.219-1.127 0.774-1.257l3.665-0.857C22.769 35.3 23.3 35.6 23.5 36.208L23.451 36.208z"/><path fill="#F9F9F3" d="M20.111 13.779l9.359 18.549l2.468-1.284l-9.359-18.549L20.111 13.779z"/><path fill="#F9F9F3" d="M29.372 32.109l2.468-1.283l0.538 4.153L29.372 32.109z"/></g></g><g id="photos" display="none"><path display="inline" fill="#5E7BA7" d="M27.497 0c15.186 0 27.5 12.3 27.5 27.497S42.683 55 27.5 55 C12.311 55 0 42.7 0 27.497C0 12.3 12.3 0 27.5 0z"/><g display="inline"><path fill="#F9F9F3" d="M16.611 40.145c-1.636 0-2.616-0.991-2.616-2.582V16.984l-2.634 0.3 c-0.847 0.092-1.459 0.837-1.365 1.661l2.492 20.75c0.094 0.8 0.9 1.4 1.7 1.327l7.793-0.845L16.611 40.145L16.611 40.1 z"/><path fill="#F9F9F3" d="M33.477 13.993H17.44c-0.829 0-1.449 0.939-1.449 1.76v20.738c0 0.8 0.7 1.5 1.5 1.489h15.983 c0.829 0 1.504-0.668 1.504-1.489V15.482C34.981 14.7 34.3 14 33.5 13.993z M32.988 15.99l-0.001 14.991H18.004V15.99 H32.988z"/><path fill="#F9F9F3" d="M43.666 17.727l-6.454-0.739l-0.04 2.569l5.447 0.088l-1.572 14.141l-3.875-0.082v4.287 c0 1.194-1.283 2.144-2.176 2.144l5.787 0.855c0.83 0.1 1.583-0.495 1.679-1.315l2.535-20.288 C45.092 18.6 44.5 17.8 43.7 17.727z"/></g></g><g id="audio"><g><path fill="#E6BC3C" d="M55.715 59.496H-0.722c-3.157 0-5.726-2.582-5.726-5.756V22.937c0-3.174 2.569-5.756 5.726-5.756h56.437 c3.157 0 5.7 2.6 5.7 5.756V53.74C61.441 56.9 58.9 59.5 55.7 59.496z M-0.323 21.3 c-1.046 0-1.897 0.842-1.897 1.875v30.203c0 1 0.9 1.9 1.9 1.875h55.64c1.046 0 1.897-0.84 1.897-1.875V23.174 c0-1.035-0.851-1.875-1.897-1.875C55.316 21.299-0.323 21.299-0.323 21.299z"/><path fill="#E6BC3C" d="M30.449-4.608l-2.365-2.397L2.978 17.714l2.467 2.397L30.449-4.608z"/><path fill="#E6BC3C" d="M33.9-8.105l-2.365-2.399l-2.601 2.637l2.365 2.397L33.9-8.105z"/><path fill="#E6BC3C" d="M6.291 49.935c0 1.754-1.43 3.18-3.195 3.18l0 0c-1.765 0-3.195-1.424-3.195-3.18l0 0 c0-1.757 1.43-3.18 3.195-3.18l0 0C4.861 46.8 6.3 48.2 6.3 49.935L6.291 49.935z"/><path fill="#E6BC3C" d="M14.788 49.935c0 1.754-1.43 3.18-3.195 3.18l0 0c-1.765 0-3.197-1.424-3.197-3.18l0 0 c0-1.757 1.432-3.18 3.197-3.18l0 0C13.358 46.8 14.8 48.2 14.8 49.935L14.788 49.935z"/><path fill="#E6BC3C" d="M23.284 49.937c0 1.757-1.43 3.18-3.195 3.18l0 0c-1.765 0-3.195-1.424-3.195-3.18l0 0 c0-1.754 1.432-3.18 3.195-3.18l0 0C21.854 46.8 23.3 48.2 23.3 49.937L23.284 49.937z"/><path fill="#E6BC3C" d="M43.79 38.194c0 1.863-1.489 3.371-3.329 3.371l0 0c-1.837 0-3.329-1.508-3.329-3.371l0 0 c0-1.863 1.489-3.371 3.329-3.371l0 0C42.299 34.8 43.8 36.3 43.8 38.194L43.79 38.194z"/><path fill="#E6BC3C" d="M40.226 53.117c-8.197 0-14.867-6.661-14.867-14.85s6.67-14.85 14.867-14.85 c8.199 0 14.9 6.7 14.9 14.85C55.094 46.5 48.4 53.1 40.2 53.117z M40.224 27.7 c-5.838 0-10.588 4.754-10.588 10.599c0 5.8 4.8 10.6 10.6 10.599c5.838 0 10.588-4.754 10.588-10.599 S46.063 27.7 40.2 27.685z"/><path fill="#E6BC3C" d="M41.243 36.96l-7.659-5.217l5.641 7.595L41.243 36.96z"/><path fill="#E6BC3C" d="M39.713 39.416l7.659 5.219l-5.641-7.595L39.713 39.416z"/><path fill="#E6BC3C" d="M-0.111 27.678h25.46v2.126h-25.46V27.678z"/><path fill="#E6BC3C" d="M-0.113 34.053h23.355v2.126H-0.113V34.053z"/><path fill="#E6BC3C" d="M-0.113 40.426l23.355-0.006v2.096l-23.355-0.004C-0.113 42.512-0.113 40.426-0.113 40.426z"/></g></g><g id="video" display="none"><path display="inline" fill="#65B3B9" d="M27.497 0c15.186 0 27.5 12.3 27.5 27.497S42.683 55 27.5 55 C12.311 55 0 42.7 0 27.497C0 12.3 12.3 0 27.5 0z"/><g display="inline"><path fill="#F9F9F3" d="M42.061 40.931H14.9c-1.608 0-2.916-1.245-2.916-2.775V22.697c0-1.53 1.308-2.776 2.916-2.776h27.162 c1.608 0 2.9 1.2 2.9 2.776v15.459C44.978 39.7 43.7 40.9 42.1 40.931z M14.963 21.9 c-0.534 0-0.968 0.404-0.968 0.901v15.19c0 0.5 0.4 0.9 1 0.901H42c0.534 0 0.968-0.404 0.968-0.901v-15.19 c0-0.497-0.434-0.901-0.968-0.901H14.963z"/><path fill="#F9F9F3" d="M38.079 20.676c-3.457 0-4.609 0-7.874 0c0-1.555 1.763-2.816 3.937-2.816S38.079 19.1 38.1 20.676z"/><path fill="#F9F9F3" d="M35.783 18.693c-1.543 0-2.058 0-3.516 0c0-0.929 0.787-1.683 1.758-1.683S35.783 17.8 35.8 18.693z"/><path fill="#F9F9F3" d="M32.99 17.942l-3.516-4.896l1.134-0.849l3.516 4.895L32.99 17.942z"/><path fill="#F9F9F3" d="M38.966 30.942c0 0.553-0.446 1-0.996 1s-0.996-0.448-0.996-1c0-0.553 0.446-1.001 0.996-1.001 S38.966 30.4 39 30.942z"/><path fill="#F9F9F3" d="M41.962 30.942c0 0.553-0.442 1-0.988 1c-0.546 0-0.988-0.448-0.988-1c0-0.553 0.443-1.001 0.988-1.001 C41.52 29.9 42 30.4 42 30.942z"/><path fill="#F9F9F3" d="M41.965 26.434c0 1.378-1.119 2.494-2.498 2.494c-1.38 0-2.498-1.116-2.498-2.494s1.119-2.494 2.498-2.494 S41.965 25.1 42 26.434z"/><path fill="#F9F9F3" d="M16.942 41.078l-0.648 7.35c-0.09 0.5 1.2 0.8 1.4 0.086l2.957-7.838L16.942 41.078z"/><path fill="#F9F9F3" d="M40.068 41.078l0.648 7.35c0.09 0.517-1.169 0.775-1.35 0.086l-2.957-7.838L40.068 41.078z"/><path fill="#F9F9F3" d="M25.809 37.923h-0.656c-3.666 0-6.134-0.16-7.546-0.487c-1.093-0.253-1.641-0.522-1.998-1.451 c-0.163-0.424-0.639-1.66-0.639-5.399v-0.33c0-3.738 0.475-4.975 0.632-5.381c0.364-0.946 0.911-1.216 2.005-1.469 c1.412-0.327 3.88-0.486 7.546-0.486h0.656c3.667 0 6.1 0.2 7.5 0.486c1.093 0.3 1.6 0.5 2 1.5 c0.163 0.4 0.6 1.7 0.6 5.399v0.33c0 3.739-0.476 4.975-0.632 5.381c-0.363 0.947-0.911 1.216-2.005 1.5 C31.944 37.8 29.5 37.9 25.8 37.923z M25.161 24.276c-3.451 0-5.84 0.146-7.1 0.435c-0.829 0.189-0.878 0.261-1.031 0.7 c-0.144 0.369-0.56 1.439-0.56 4.891v0.322c0 3.5 0.4 4.5 0.6 4.873c0.16 0.4 0.2 0.5 1 0.7 c1.261 0.3 3.6 0.4 7.1 0.435h0.647c3.451 0 5.84-0.146 7.1-0.435c0.829-0.19 0.878-0.26 1.031-0.653 c0.144-0.37 0.56-1.438 0.56-4.891v-0.322c0-3.452-0.416-4.522-0.553-4.873c-0.16-0.411-0.209-0.483-1.038-0.672 c-1.26-0.289-3.648-0.435-7.1-0.435H25.161z"/><path fill="#F9F9F3" d="M36.965 34.937h5.027v1.004h-5.027V34.937z"/><path fill="#F9F9F3" d="M36.965 32.922h5.027v1.003h-5.027V32.922z"/><path fill="#F9F9F3" d="M31.181 12.208c0 0.78-0.661 1.413-1.476 1.413s-1.476-0.633-1.476-1.413c0-0.781 0.661-1.413 1.476-1.413 S31.181 11.4 31.2 12.208z"/><path fill="#F9F9F3" d="M34.052 17.566l5.763-8.131l1.222 0.729l-5.763 8.131L34.052 17.566z"/><path fill="#F9F9F3" d="M41.05 10.714c-0.766 0.267-1.614-0.11-1.893-0.844c-0.279-0.733 0.115-1.544 0.882-1.812 c0.766-0.267 1.6 0.1 1.9 0.844C42.211 9.6 41.8 10.4 41 10.714z"/></g></g><g id="quote" display="none"><path display="inline" fill="#786D5D" d="M27.497 0c15.186 0 27.5 12.3 27.5 27.497S42.683 55 27.5 55 C12.311 55 0 42.7 0 27.497C0 12.3 12.3 0 27.5 0z"/><g display="inline"><path fill="#F9F9F3" d="M44.975 34.128l-1.371-13.229c-0.099-0.954-0.979-1.652-1.962-1.556l-29.058 3.1 c-0.983 0.096-1.702 0.95-1.603 1.903l1.371 13.23c0.099 1 1 1.7 2 1.556l29.057-3.083 C44.354 35.9 45.1 35.1 45 34.128z M19.043 30.566c-0.358 0.416-0.816 0.646-1.374 0.7 c-0.651 0.053-1.236-0.16-1.754-0.641s-0.815-1.157-0.891-2.029c-0.088-1.016 0.154-1.952 0.728-2.81s1.533-1.587 2.879-2.189 l0.048 0.553c-0.782 0.352-1.374 0.852-1.779 1.503c-0.404 0.651-0.577 1.307-0.52 1.969c0.012 0.1 0 0.2 0.1 0.3 c0.035 0 0.1 0.1 0.1 0.059s0.095-0.034 0.168-0.093c0.233-0.193 0.539-0.305 0.92-0.336 c0.442-0.036 0.8 0.1 1.2 0.429c0.371 0.3 0.6 0.7 0.6 1.205C19.558 29.7 19.4 30.2 19 30.566z M25.068 30.109c-0.358 0.416-0.816 0.647-1.375 0.692c-0.651 0.053-1.236-0.16-1.753-0.64c-0.518-0.481-0.815-1.157-0.891-2.03 c-0.088-1.016 0.155-1.952 0.728-2.809c0.574-0.858 1.533-1.587 2.878-2.19l0.048 0.553c-0.782 0.352-1.374 0.853-1.778 1.5 c-0.404 0.651-0.577 1.307-0.52 1.969c0.012 0.1 0 0.2 0.1 0.31c0.035 0 0.1 0.1 0.1 0.1 c0.039-0.003 0.095-0.034 0.168-0.093c0.233-0.193 0.539-0.306 0.919-0.336c0.442-0.036 0.8 0.1 1.2 0.4 c0.372 0.3 0.6 0.7 0.6 1.205C25.583 29.2 25.4 29.7 25.1 30.109z"/><path fill="#F9F9F3" d="M26.107 18.963l-11.076-2.001c-0.972-0.174-1.907 0.451-2.087 1.394l-0.362 1.905L26.107 18.963z"/><path fill="#F9F9F3" d="M35.435 38.686l5.129 1.204c0.971 0.2 1.907-0.451 2.087-1.394l0.126-0.662L35.435 38.686z"/></g></g><g id="link" display="none"><path display="inline" fill="#87B44E" d="M27.497 0c15.186 0 27.5 12.3 27.5 27.497S42.683 55 27.5 55 C12.311 55 0 42.7 0 27.497C0 12.3 12.3 0 27.5 0z"/><g display="inline"><path fill="#F9F9F3" d="M19.075 21.938c0 1.634-1.354 2.96-3.024 2.96s-3.024-1.325-3.024-2.96c0-1.635 1.354-2.96 3.024-2.96 S19.075 20.3 19.1 21.938z"/><path fill="#F9F9F3" d="M17.487 24.227l5.677 6.484h-2.506l-3.071-3.184v2.282l4.732 8.17h-3.166l-2.992-5.843l-3.105 5.843H9.891 l4.676-8.233v-2.282l-3.082 3.247H8.98l6.043-6.484C15.023 24.2 17.5 24.2 17.5 24.227z"/><path fill="#F9F9F3" d="M30.985 21.938c0 1.634-1.354 2.96-3.024 2.96s-3.024-1.325-3.024-2.96c0-1.635 1.354-2.96 3.024-2.96 S30.985 20.3 31 21.938z"/><path fill="#F9F9F3" d="M29.396 24.227l5.677 6.484h-2.505l-3.071-3.184v2.282l4.732 8.17h-3.166l-2.992-5.843l-3.105 5.843H21.8 l4.676-8.233v-2.282l-3.082 3.247H20.89l6.043-6.484C26.933 24.2 29.4 24.2 29.4 24.227z"/><path fill="#F9F9F3" d="M42.894 21.938c0 1.634-1.354 2.96-3.024 2.96s-3.024-1.325-3.024-2.96c0-1.635 1.354-2.96 3.024-2.96 S42.894 20.3 42.9 21.938z"/><path fill="#F9F9F3" d="M41.305 24.227l5.677 6.484h-2.505l-3.071-3.184v2.282l4.732 8.17h-3.166l-2.992-5.843l-3.105 5.843H33.71 l4.676-8.233v-2.282l-3.082 3.247h-2.505l6.043-6.484C38.842 24.2 41.3 24.2 41.3 24.227z"/></g></g></svg>