<svg xmlns="http://www.w3.org/2000/svg" xmlns:xlink="http://www.w3.org/1999/xlink" version="1.1" id="Layer_1" x="0px" y="0px" width="24.997px" height="26.997px" viewBox="0 0 24.997 26.997" enable-background="new 0 0 24.997 26.997" xml:space="preserve"><path fill="#FFFFFF" d="M18.919 3.805c0 2.101-1.664 3.804-3.717 3.804c-2.053 0-3.717-1.703-3.717-3.804 C11.485 1.7 13.1 0 15.2 0C17.255 0 18.9 1.7 18.9 3.805z"/><path fill="#FFFFFF" d="M9.999 17.998l5.083 8.999l3.835 0l-7.431-12.61l2.746-3.451l2.766 4.063h7.999l-1-3h-4.999l-2.876-4.407 c-0.441-0.695-1.072-1.605-3.441-1.605H6.251l-4.899 6.999h3.378l2.702-3.503h2.702l-3.135 4.516v6.999H2l-2 3h9.999V17.998z"/></svg>