<svg xmlns="http://www.w3.org/2000/svg" xmlns:xlink="http://www.w3.org/1999/xlink" version="1.1" id="Layer_1" x="0px" y="0px" width="19px" height="18.985px" viewBox="19.997 0.012 19 18.985" enable-background="new 19.997 0.012 19 18.985" xml:space="preserve"><path fill="#4E6DAE" d="M38.997 9.534c0-5.259-4.253-9.522-9.5-9.522s-9.5 4.263-9.5 9.522c0 4.9 3.7 8.9 8.5 9.463v-7.26 h-1.619v-2.73h1.619c0 0 0-1.826 0-2.235c0-0.41-0.082-3.145 3.409-3.145c0.469 0 1.5 0 2.5 0c0 1.2 0 2.5 0 2.8 c-0.7 0-1.455 0-1.812 0c-0.358 0-0.722 0.375-0.722 0.655c0 0.3 0 1.9 0 1.868s2.239 0 2.5 0 c-0.103 1.432-0.311 2.742-0.311 2.742h-2.232v7.041C35.923 17.8 39 14 39 9.534z"/></svg>