<svg xmlns="http://www.w3.org/2000/svg" xmlns:xlink="http://www.w3.org/1999/xlink" version="1.1" id="Layer_1" x="0px" y="0px" width="18.998px" height="18.998px" viewBox="59.994 0 18.998 18.998" enable-background="new 59.994 0 18.998 18.998" xml:space="preserve"><path fill="#E8499B" d="M69.493 0c-5.246 0-9.499 4.253-9.499 9.499c0 5.2 4.3 9.5 9.5 9.5 c5.245 0 9.499-4.252 9.499-9.499C78.992 4.3 74.7 0 69.5 0z M65.481 12.573c-1.719 0-3.111-1.391-3.111-3.111 c0-1.719 1.393-3.112 3.111-3.112c1.718 0 3.1 1.4 3.1 3.112C68.593 11.2 67.2 12.6 65.5 12.573z M73.532 12.6 c-1.719 0-3.113-1.391-3.113-3.111c0-1.719 1.395-3.112 3.113-3.112s3.111 1.4 3.1 3.1 C76.645 11.2 75.2 12.6 73.5 12.573z"/></svg>