<svg xmlns="http://www.w3.org/2000/svg" xmlns:xlink="http://www.w3.org/1999/xlink" version="1.1" id="Layer_1" x="0px" y="0px" width="18.999px" height="18.999px" viewBox="39.995 -0.002 18.999 18.999" enable-background="new 39.995 -0.002 18.999 18.999" xml:space="preserve"><g><path fill="#E44D3B" d="M48.255 18.907c1.718-0.507 2.647-1.708 2.647-2.923c0-1.276-0.389-2.041-1.591-2.863 c-0.411-0.283-1.198-0.969-1.198-1.371c0-0.472 0.139-0.704 0.872-1.26c0.754-0.569 1.285-1.37 1.285-2.302 c0-1.108-0.509-2.189-1.467-2.545h1.441l1.021-0.713c0 0-3.414 0-4.552 0c-2.04 0-3.961 1.497-3.961 3.2 c0 1.8 1.4 3.2 3.5 3.202c0.146 0 0.284-0.005 0.422-0.012c-0.135 0.25-0.23 0.528-0.23 0.8 c0 0.5 0.3 0.9 0.6 1.222c-0.263 0-0.515 0.004-0.789 0.004c-1.924 0-3.503 0.903-4.152 2.047l-0.006 0 c-1.309-1.627-2.091-3.696-2.091-5.947c0-5.247 4.253-9.5 9.499-9.5s9.5 4.3 9.5 9.5c0 5.247-4.253 9.499-9.499 9.5 c-0.426 0-0.844-0.028-1.254-0.083L48.255 18.907z M57 7.005H55v-2l-0.926-0.073v2.11h-2.112L52 8.005h2v2h1v-2h1.999L57 7 L57 7.005z"/><path fill="#E44D3B" d="M46.831 10.555c-1.014-0.03-1.979-1.101-2.155-2.391c-0.174-1.291 0.506-2.28 1.521-2.25 c1.016 0 2 1.1 2.2 2.356C48.528 9.6 47.8 10.6 46.8 10.555z"/><path fill="#E44D3B" d="M46.439 18.17c-1.533 0-2.645-0.941-2.645-2.07c0-1.107 1.375-2.031 2.91-2.016 c0.357 0 0.7 0.1 1 0.156c0.833 0.6 1.4 0.9 1.6 1.517c0.032 0.1 0.1 0.3 0.1 0.4 C49.352 17.3 48.6 18.2 46.4 18.17z"/></g></svg>