<svg xmlns="http://www.w3.org/2000/svg" xmlns:xlink="http://www.w3.org/1999/xlink" version="1.1" id="Layer_1" x="0px" y="0px" width="21.008px" height="13.999px" viewBox="0 0 21.008 13.999" enable-background="new 0 0 21.008 13.999" xml:space="preserve"><path fill="#F9F9F3" d="M7.197 11.363c-0.048 0.002-0.095 0.011-0.143 0.011c-2.431 0-4.409-1.962-4.409-4.375 c0-2.412 1.978-4.374 4.409-4.374c0.438 0 0.9 0.1 1.3 0.184c0.875 0.3 1.6 0.8 2.2 1.5 c0.216 0.3 0.4 0.6 0.5 0.881c0.262 0.6 0.4 1.2 0.4 1.835c0 0.656-0.15 1.276-0.412 1.8 c0.491 0.8 1.3 1.3 2.2 1.511c0.547-0.994 0.858-2.134 0.858-3.346c0-1.212-0.311-2.352-0.858-3.346 c-0.163-0.297-0.353-0.576-0.556-0.845c-0.588-0.778-1.331-1.432-2.19-1.911C9.483 0.3 8.3 0 7.1 0C3.159 0 0 3.1 0 7 c0 3.9 3.2 7 7.1 6.999c0.819 0 1.599-0.152 2.33-0.408C8.516 13 7.8 12.2 7.2 11.363z"/><path fill="#F9F9F3" d="M13.954 0c-0.631 0-1.239 0.09-1.822 0.245c0.861 0.7 1.6 1.5 2.1 2.4 c2.283 0.2 4.1 2.1 4.1 4.358c0 2.371-1.912 4.303-4.286 4.369c-0.041 0.001-0.081 0.006-0.122 0 c-0.438 0-0.86-0.066-1.259-0.184c-0.875-0.259-1.636-0.782-2.19-1.474c-0.599-0.747-0.959-1.69-0.959-2.716 c0-0.647 0.144-1.26 0.4-1.813C9.473 4.4 8.7 3.8 7.8 3.592C7.233 4.6 6.9 5.8 6.9 6.999c0 1.6 0.5 3 1.4 4.2 c0.588 0.8 1.3 1.4 2.2 1.911c0.416 0.2 0.9 0.4 1.3 0.571c0.672 0.2 1.4 0.3 2.1 0.3 c3.896 0 7.054-3.134 7.054-6.999C21.008 3.1 17.8 0 14 0z"/></svg>