<svg xmlns="http://www.w3.org/2000/svg" xmlns:xlink="http://www.w3.org/1999/xlink" version="1.1" id="Layer_1" x="0px" y="0px" width="10.994px" height="19.031px" viewBox="0 0 10.994 19.031" enable-background="new 0 0 10.994 19.031" xml:space="preserve"><path fill="#F9F9F3" d="M6.989 15.118c0 1.581-1.565 3.27-3.495 3.772C1.565 19.4 0 18.5 0 16.9 c0-1.581 1.565-3.27 3.495-3.772C5.424 12.7 7 13.5 7 15.118z"/><path fill="#F9F9F3" d="M4.993 4.03l1.991 1.339v10.659H4.993V4.03z"/><path fill="#F9F9F3" d="M10.994 11.472c0-3.021-1.219-4.587-2.699-6.25c-1.139-1.28-2.342-2.705-3.066-5.099 C5.177-0.046 4.995-0.039 5 0.13v6.575H5.78c0.682 0.9 1.5 1.4 2.2 1.953c1.103 0.8 2 1.4 2.5 3 C10.596 12.2 11 12.1 11 11.472z"/></svg>