<svg xmlns="http://www.w3.org/2000/svg" xmlns:xlink="http://www.w3.org/1999/xlink" version="1.1" id="Layer_1" x="0px" y="0px" width="50px" height="50px" viewBox="0 0 50 50" enable-background="new 0 0 50 50" xml:space="preserve"><circle opacity="0.4" cx="25" cy="25" r="25"/><g><path fill="#F9F9F3" d="M17.684 34.135c-1.178 0-1.73-0.95-1.73-2.174l0.051-15.461h-2.017c-0.61 0.07-1.051 0.333-0.983 1 l1.794 16.009c0.068 0.6 0.6 1.1 1.2 1.021l5.975-0.361H17.684z"/><path fill="#F9F9F3" d="M29.885 14.498H18.059c-0.611 0-1.068 0.705-1.068 1.321V31.38c0 0.6 0.5 1.1 1.1 1.117h11.785 c0.611 0 1.109-0.501 1.109-1.117V15.615C30.994 15 30.5 14.5 29.9 14.498z M29.001 16.497l0 10.006h-9.986V16.497 H29.001z"/><path fill="#F9F9F3" d="M36.064 17.935l-4.061-0.436v2h3l-1 10.999h-2v3c-0.031 1.034-1.376 1.353-2.001 1.353l4.046 0.6 c0.58 0.1 1.107-0.373 1.174-0.992l1.772-15.314C37.062 18.6 36.6 18 36.1 17.935z"/></g></svg>