<svg xmlns="http://www.w3.org/2000/svg" xmlns:xlink="http://www.w3.org/1999/xlink" version="1.1" id="Layer_1" x="0px" y="0px" width="18.996px" height="18.998px" viewBox="99.992 0 18.996 18.998" enable-background="new 99.992 0 18.996 18.998" xml:space="preserve"><g><g><path fill="#007FB2" d="M109.49 0c-5.246 0-9.498 4.253-9.498 9.499c0 5.2 4.3 9.5 9.5 9.5 c5.245 0 9.498-4.252 9.498-9.499C118.989 4.3 114.7 0 109.5 0z M107.333 13.576H105.3v-6.61h2.033V13.576z M106.318 6.5 c-0.562 0-1.018-0.456-1.018-1.017c0-0.562 0.454-1.018 1.018-1.018c0.562 0 1 0.5 1 1 C107.333 6 106.9 6.5 106.3 6.457z M114.455 13.576h-2.033V9.762c0-0.205-0.206-0.537-0.35-0.617 c-0.191-0.107-0.642-0.116-0.847-0.017l-0.84 0.403v4.044h-2.032v-6.61h2.032v0.312c0.807-0.366 1.924-0.332 2.7 0.1 c0.807 0.5 1.4 1.5 1.4 2.392V13.576L114.455 13.576z"/></g></g></svg>