<svg xmlns="http://www.w3.org/2000/svg" xmlns:xlink="http://www.w3.org/1999/xlink" version="1.1" id="Layer_1" x="0px" y="0px" width="68.065px" height="46px" viewBox="-6.055 5.426 68.065 46" enable-background="new -6.055 5.426 68.065 46" xml:space="preserve"><g id="articles" display="none"><path display="inline" fill="#DB5640" d="M27.497 0c15.186 0 27.5 12.3 27.5 27.497S42.683 55 27.5 55 C12.311 55 0 42.7 0 27.497C0 12.3 12.3 0 27.5 0z"/><g display="inline"><path fill="#F9F9F3" d="M33.27 13.288l-16.508 3.778c-0.978 0.228-1.589 1.222-1.365 2.214l5.001 21.8 c0.225 1 1.2 1.6 2.2 1.385l16.508-3.778c0.977-0.228 1.59-1.221 1.364-2.214L35.45 14.7 C35.226 13.7 34.2 13.1 33.3 13.288z M33.273 15.746l4.691 20.423L22.51 39.7l-4.691-20.423L33.273 15.746z"/><path fill="#F9F9F3" d="M20.199 21.871c0.128 0.564-0.219 1.127-0.774 1.256l-3.665 0.857c-0.556 0.13-1.11-0.222-1.238-0.786l0 0 c-0.128-0.564 0.219-1.127 0.774-1.257l3.665-0.857C19.516 21 20.1 21.3 20.2 21.871L20.199 21.871z"/><path fill="#F9F9F3" d="M21.283 26.65c0.128 0.565-0.219 1.127-0.774 1.257l-3.665 0.857c-0.556 0.13-1.11-0.222-1.238-0.786l0 0 c-0.128-0.564 0.219-1.127 0.774-1.257l3.665-0.857C20.601 25.7 21.2 26.1 21.3 26.65L21.283 26.65z"/><path fill="#F9F9F3" d="M22.367 31.429c0.128 0.564-0.219 1.127-0.774 1.257l-3.665 0.857c-0.556 0.13-1.109-0.222-1.238-0.786 l0 0c-0.128-0.564 0.219-1.127 0.775-1.256l3.665-0.857C21.685 30.5 22.2 30.9 22.4 31.429L22.367 31.429z"/><path fill="#F9F9F3" d="M23.451 36.208c0.128 0.564-0.219 1.127-0.774 1.257l-3.665 0.857c-0.556 0.13-1.11-0.222-1.238-0.786l0 0 c-0.128-0.564 0.219-1.127 0.774-1.257l3.665-0.857C22.769 35.3 23.3 35.6 23.5 36.208L23.451 36.208z"/><path fill="#F9F9F3" d="M20.111 13.779l9.359 18.549l2.468-1.284l-9.359-18.549L20.111 13.779z"/><path fill="#F9F9F3" d="M29.372 32.109l2.468-1.283l0.538 4.153L29.372 32.109z"/></g></g><g id="photos" display="none"><path display="inline" fill="#5E7BA7" d="M27.497 0c15.186 0 27.5 12.3 27.5 27.497S42.683 55 27.5 55 C12.311 55 0 42.7 0 27.497C0 12.3 12.3 0 27.5 0z"/><g display="inline"><path fill="#F9F9F3" d="M16.611 40.145c-1.636 0-2.616-0.991-2.616-2.582V16.984l-2.634 0.3 c-0.847 0.092-1.459 0.837-1.365 1.661l2.492 20.75c0.094 0.8 0.9 1.4 1.7 1.327l7.793-0.845L16.611 40.145L16.611 40.1 z"/><path fill="#F9F9F3" d="M33.477 13.993H17.44c-0.829 0-1.449 0.939-1.449 1.76v20.738c0 0.8 0.7 1.5 1.5 1.489h15.983 c0.829 0 1.504-0.668 1.504-1.489V15.482C34.981 14.7 34.3 14 33.5 13.993z M32.988 15.99l-0.001 14.991H18.004V15.99 H32.988z"/><path fill="#F9F9F3" d="M43.666 17.727l-6.454-0.739l-0.04 2.569l5.447 0.088l-1.572 14.141l-3.875-0.082v4.287 c0 1.194-1.283 2.144-2.176 2.144l5.787 0.855c0.83 0.1 1.583-0.495 1.679-1.315l2.535-20.288 C45.092 18.6 44.5 17.8 43.7 17.727z"/></g></g><g id="audio" display="none"><path display="inline" fill="#E6BC3C" d="M27.497 0c15.186 0 27.5 12.3 27.5 27.497S42.683 55 27.5 55 C12.311 55 0 42.7 0 27.497C0 12.3 12.3 0 27.5 0z"/><g display="inline"><path fill="#F9F9F3" d="M40.798 40.994H14.195c-1.488 0-2.699-1.217-2.699-2.713v-14.52c0-1.496 1.211-2.713 2.699-2.713h26.603 c1.488 0 2.7 1.2 2.7 2.713v14.52C43.497 39.8 42.3 41 40.8 40.994z M14.383 23 c-0.493 0-0.894 0.397-0.894 0.884V38.11c0 0.5 0.4 0.9 0.9 0.884H40.61c0.493 0 0.894-0.396 0.894-0.884V23.873 c0-0.488-0.401-0.884-0.894-0.884C40.61 23 14.4 23 14.4 22.989z"/><path fill="#F9F9F3" d="M28.888 10.777l-1.115-1.13L15.939 21.299l1.163 1.13L28.888 10.777z"/><path fill="#F9F9F3" d="M30.515 9.129L29.4 7.998l-1.226 1.243l1.115 1.13L30.515 9.129z"/><path fill="#F9F9F3" d="M17.501 36.487c0 0.827-0.674 1.499-1.506 1.499l0 0c-0.832 0-1.506-0.671-1.506-1.499l0 0 c0-0.828 0.674-1.499 1.506-1.499l0 0C16.827 35 17.5 35.7 17.5 36.487L17.501 36.487z"/><path fill="#F9F9F3" d="M21.506 36.487c0 0.827-0.674 1.499-1.506 1.499l0 0c-0.832 0-1.507-0.671-1.507-1.499l0 0 c0-0.828 0.675-1.499 1.507-1.499l0 0C20.832 35 21.5 35.7 21.5 36.487L21.506 36.487z"/><path fill="#F9F9F3" d="M25.511 36.488c0 0.828-0.674 1.499-1.506 1.499l0 0c-0.832 0-1.506-0.671-1.506-1.499l0 0 c0-0.827 0.675-1.499 1.506-1.499l0 0C24.837 35 25.5 35.7 25.5 36.488L25.511 36.488z"/><path fill="#F9F9F3" d="M35.177 30.953c0 0.878-0.702 1.589-1.569 1.589l0 0c-0.866 0-1.569-0.711-1.569-1.589l0 0 c0-0.878 0.702-1.589 1.569-1.589l0 0C34.474 29.4 35.2 30.1 35.2 30.953L35.177 30.953z"/><path fill="#F9F9F3" d="M33.497 37.987c-3.864 0-7.008-3.14-7.008-7s3.144-7 7.008-7c3.865 0 7 3.1 7 7 C40.505 34.8 37.4 38 33.5 37.987z M33.496 25.999c-2.752 0-4.991 2.241-4.991 4.996c0 2.8 2.2 5 5 5 s4.991-2.241 4.991-4.996S36.248 26 33.5 25.999z"/><path fill="#F9F9F3" d="M33.976 30.371l-3.61-2.459l2.659 3.58L33.976 30.371z"/><path fill="#F9F9F3" d="M33.255 31.529l3.61 2.46l-2.659-3.58L33.255 31.529z"/><path fill="#F9F9F3" d="M14.483 25.996h12.001v1.002H14.483V25.996z"/><path fill="#F9F9F3" d="M14.482 29.001h11.009v1.002H14.482V29.001z"/><path fill="#F9F9F3" d="M14.482 32.005l11.009-0.003v0.988l-11.009-0.002C14.482 33 14.5 32 14.5 32.005z"/></g></g><g id="video" display="none"><path display="inline" fill="#65B3B9" d="M27.497 0c15.186 0 27.5 12.3 27.5 27.497S42.683 55 27.5 55 C12.311 55 0 42.7 0 27.497C0 12.3 12.3 0 27.5 0z"/><g display="inline"><path fill="#F9F9F3" d="M42.061 40.931H14.9c-1.608 0-2.916-1.245-2.916-2.775V22.697c0-1.53 1.308-2.776 2.916-2.776h27.162 c1.608 0 2.9 1.2 2.9 2.776v15.459C44.978 39.7 43.7 40.9 42.1 40.931z M14.963 21.9 c-0.534 0-0.968 0.404-0.968 0.901v15.19c0 0.5 0.4 0.9 1 0.901H42c0.534 0 0.968-0.404 0.968-0.901v-15.19 c0-0.497-0.434-0.901-0.968-0.901H14.963z"/><path fill="#F9F9F3" d="M38.079 20.676c-3.457 0-4.609 0-7.874 0c0-1.555 1.763-2.816 3.937-2.816S38.079 19.1 38.1 20.676z"/><path fill="#F9F9F3" d="M35.783 18.693c-1.543 0-2.058 0-3.516 0c0-0.929 0.787-1.683 1.758-1.683S35.783 17.8 35.8 18.693z"/><path fill="#F9F9F3" d="M32.99 17.942l-3.516-4.896l1.134-0.849l3.516 4.895L32.99 17.942z"/><path fill="#F9F9F3" d="M38.966 30.942c0 0.553-0.446 1-0.996 1s-0.996-0.448-0.996-1c0-0.553 0.446-1.001 0.996-1.001 S38.966 30.4 39 30.942z"/><path fill="#F9F9F3" d="M41.962 30.942c0 0.553-0.442 1-0.988 1c-0.546 0-0.988-0.448-0.988-1c0-0.553 0.443-1.001 0.988-1.001 C41.52 29.9 42 30.4 42 30.942z"/><path fill="#F9F9F3" d="M41.965 26.434c0 1.378-1.119 2.494-2.498 2.494c-1.38 0-2.498-1.116-2.498-2.494s1.119-2.494 2.498-2.494 S41.965 25.1 42 26.434z"/><path fill="#F9F9F3" d="M16.942 41.078l-0.648 7.35c-0.09 0.5 1.2 0.8 1.4 0.086l2.957-7.838L16.942 41.078z"/><path fill="#F9F9F3" d="M40.068 41.078l0.648 7.35c0.09 0.517-1.169 0.775-1.35 0.086l-2.957-7.838L40.068 41.078z"/><path fill="#F9F9F3" d="M25.809 37.923h-0.656c-3.666 0-6.134-0.16-7.546-0.487c-1.093-0.253-1.641-0.522-1.998-1.451 c-0.163-0.424-0.639-1.66-0.639-5.399v-0.33c0-3.738 0.475-4.975 0.632-5.381c0.364-0.946 0.911-1.216 2.005-1.469 c1.412-0.327 3.88-0.486 7.546-0.486h0.656c3.667 0 6.1 0.2 7.5 0.486c1.093 0.3 1.6 0.5 2 1.5 c0.163 0.4 0.6 1.7 0.6 5.399v0.33c0 3.739-0.476 4.975-0.632 5.381c-0.363 0.947-0.911 1.216-2.005 1.5 C31.944 37.8 29.5 37.9 25.8 37.923z M25.161 24.276c-3.451 0-5.84 0.146-7.1 0.435c-0.829 0.189-0.878 0.261-1.031 0.7 c-0.144 0.369-0.56 1.439-0.56 4.891v0.322c0 3.5 0.4 4.5 0.6 4.873c0.16 0.4 0.2 0.5 1 0.7 c1.261 0.3 3.6 0.4 7.1 0.435h0.647c3.451 0 5.84-0.146 7.1-0.435c0.829-0.19 0.878-0.26 1.031-0.653 c0.144-0.37 0.56-1.438 0.56-4.891v-0.322c0-3.452-0.416-4.522-0.553-4.873c-0.16-0.411-0.209-0.483-1.038-0.672 c-1.26-0.289-3.648-0.435-7.1-0.435H25.161z"/><path fill="#F9F9F3" d="M36.965 34.937h5.027v1.004h-5.027V34.937z"/><path fill="#F9F9F3" d="M36.965 32.922h5.027v1.003h-5.027V32.922z"/><path fill="#F9F9F3" d="M31.181 12.208c0 0.78-0.661 1.413-1.476 1.413s-1.476-0.633-1.476-1.413c0-0.781 0.661-1.413 1.476-1.413 S31.181 11.4 31.2 12.208z"/><path fill="#F9F9F3" d="M34.052 17.566l5.763-8.131l1.222 0.729l-5.763 8.131L34.052 17.566z"/><path fill="#F9F9F3" d="M41.05 10.714c-0.766 0.267-1.614-0.11-1.893-0.844c-0.279-0.733 0.115-1.544 0.882-1.812 c0.766-0.267 1.6 0.1 1.9 0.844C42.211 9.6 41.8 10.4 41 10.714z"/></g></g><g id="quote"><g><path fill="#786D5D" d="M61.993 39.837l-2.744-26.474c-0.198-1.909-1.959-3.306-3.926-3.114l-58.151 6.2 c-1.967 0.192-3.406 1.901-3.208 3.808l2.744 26.476c0.198 1.9 2 3.3 3.9 3.114l58.149-6.17 C60.75 43.5 62.2 41.7 62 39.837z M10.097 32.709c-0.716 0.833-1.633 1.293-2.75 1.4 c-1.303 0.106-2.473-0.32-3.51-1.283c-1.037-0.963-1.631-2.315-1.783-4.06c-0.176-2.033 0.308-3.906 1.457-5.623 s3.068-3.176 5.761-4.381l0.096 1.107c-1.565 0.704-2.75 1.705-3.56 3.008C5 24.2 4.7 25.5 4.8 26.8 c0.024 0.3 0.1 0.5 0.2 0.622c0.07 0.1 0.1 0.1 0.2 0.118c0.078-0.006 0.19-0.068 0.336-0.186 c0.466-0.386 1.079-0.61 1.841-0.672c0.885-0.072 1.7 0.2 2.4 0.859c0.742 0.6 1.2 1.4 1.2 2.4 C11.128 31 10.8 31.9 10.1 32.709z M22.155 31.794c-0.716 0.833-1.633 1.295-2.752 1.4 c-1.303 0.106-2.473-0.32-3.508-1.281c-1.037-0.963-1.631-2.315-1.783-4.062c-0.176-2.033 0.31-3.906 1.457-5.621 c1.149-1.717 3.068-3.176 5.759-4.383l0.096 1.107c-1.565 0.704-2.75 1.707-3.558 3.008c-0.808 1.303-1.155 2.616-1.041 3.9 c0.024 0.3 0.1 0.5 0.2 0.62c0.07 0.1 0.1 0.1 0.2 0.116c0.078-0.006 0.19-0.068 0.336-0.186 c0.466-0.386 1.079-0.612 1.839-0.672c0.885-0.072 1.7 0.2 2.4 0.859c0.744 0.6 1.2 1.4 1.2 2.4 C23.185 30 22.9 31 22.2 31.794z"/><path fill="#786D5D" d="M24.234 9.489L2.068 5.484c-1.945-0.348-3.816 0.903-4.177 2.79l-0.724 3.812L24.234 9.489z"/><path fill="#786D5D" d="M42.901 48.958l10.264 2.409c1.943 0.3 3.816-0.903 4.177-2.79l0.252-1.325L42.901 48.958z"/></g></g><g id="link" display="none"><path display="inline" fill="#87B44E" d="M27.497 0c15.186 0 27.5 12.3 27.5 27.497S42.683 55 27.5 55 C12.311 55 0 42.7 0 27.497C0 12.3 12.3 0 27.5 0z"/><g display="inline"><path fill="#F9F9F3" d="M19.075 21.938c0 1.634-1.354 2.96-3.024 2.96s-3.024-1.325-3.024-2.96c0-1.635 1.354-2.96 3.024-2.96 S19.075 20.3 19.1 21.938z"/><path fill="#F9F9F3" d="M17.487 24.227l5.677 6.484h-2.506l-3.071-3.184v2.282l4.732 8.17h-3.166l-2.992-5.843l-3.105 5.843H9.891 l4.676-8.233v-2.282l-3.082 3.247H8.98l6.043-6.484C15.023 24.2 17.5 24.2 17.5 24.227z"/><path fill="#F9F9F3" d="M30.985 21.938c0 1.634-1.354 2.96-3.024 2.96s-3.024-1.325-3.024-2.96c0-1.635 1.354-2.96 3.024-2.96 S30.985 20.3 31 21.938z"/><path fill="#F9F9F3" d="M29.396 24.227l5.677 6.484h-2.505l-3.071-3.184v2.282l4.732 8.17h-3.166l-2.992-5.843l-3.105 5.843H21.8 l4.676-8.233v-2.282l-3.082 3.247H20.89l6.043-6.484C26.933 24.2 29.4 24.2 29.4 24.227z"/><path fill="#F9F9F3" d="M42.894 21.938c0 1.634-1.354 2.96-3.024 2.96s-3.024-1.325-3.024-2.96c0-1.635 1.354-2.96 3.024-2.96 S42.894 20.3 42.9 21.938z"/><path fill="#F9F9F3" d="M41.305 24.227l5.677 6.484h-2.505l-3.071-3.184v2.282l4.732 8.17h-3.166l-2.992-5.843l-3.105 5.843H33.71 l4.676-8.233v-2.282l-3.082 3.247h-2.505l6.043-6.484C38.842 24.2 41.3 24.2 41.3 24.227z"/></g></g></svg>