<svg xmlns="http://www.w3.org/2000/svg" xmlns:xlink="http://www.w3.org/1999/xlink" version="1.1" id="Layer_1" x="0px" y="0px" width="18.998px" height="18.998px" viewBox="119.989 0 18.998 18.998" enable-background="new 119.989 0 18.998 18.998" xml:space="preserve"><path fill="#EE7319" d="M129.488 0c-5.245 0-9.499 4.252-9.499 9.499s4.254 9.5 9.5 9.499c5.246 0 9.499-4.252 9.499-9.499 C138.987 4.3 134.7 0 129.5 0z M127.065 12.994c-0.605 0-1.1-0.488-1.1-1.094c0-0.604 0.492-1.094 1.1-1.094 c0.606 0 1.1 0.5 1.1 1.094C128.164 12.5 127.7 13 127.1 12.994z M129.58 12.981c0-0.963-0.377-1.871-1.059-2.551 c-0.684-0.681-1.584-1.056-2.556-1.056V7.902c2.751 0 5.1 2.4 5.1 5.08H129.58L129.58 12.981z M132.448 13 c0-3.559-2.951-6.452-6.481-6.452V5c4.369 0 8 3.6 8 7.979h-1.545V12.981z"/></svg>