<svg xmlns="http://www.w3.org/2000/svg" xmlns:xlink="http://www.w3.org/1999/xlink" version="1.1" id="Layer_1" x="0px" y="0px" width="14.995px" height="14.985px" viewBox="0 0 14.995 14.985" enable-background="new 0 0 14.995 14.985" xml:space="preserve"><g><path fill-rule="evenodd" clip-rule="evenodd" fill="#7f8587" d="M5.004 0C2.241 0 0 2.2 0 5 c0 2.8 2.2 5 5 4.996s5.003-2.237 5.003-4.996C10.007 2.2 7.8 0 5 0z M5.002 8 c-1.653 0-2.991-1.347-2.991-3.009c0-1.662 1.338-3.008 2.991-3.008c1.651 0 3 1.3 3 3 C7.993 6.7 6.7 8 5 8.001z"/><path fill-rule="evenodd" clip-rule="evenodd" fill="#7f8587" d="M10.295 8.029L9.773 8.564l-1.045-1.07l-1.044 1.07l1.044 1.1 l-0.522 0.535l3.134 3.21l2.089-2.14L10.295 8.029z"/><path fill-rule="evenodd" clip-rule="evenodd" fill="#7f8587" d="M11.862 13.914l2.089-2.14l1.045 1.07l-2.089 2.141L11.862 13.9 z"/></g></svg>