<svg xmlns="http://www.w3.org/2000/svg" xmlns:xlink="http://www.w3.org/1999/xlink" version="1.1" id="Layer_1" x="0px" y="0px" width="37px" height="74.034px" viewBox="-0.01 -0.021 37 74.034" enable-background="new -0.01 -0.021 37 74.034" xml:space="preserve"><path opacity="0.15" fill="#9FA7A9" enable-background="new    " d="M0.023-0.021c-0.011 0-0.022 0.001-0.033 0.001v74.032 c0.011 0 0 0 0 0.001c20.416 0 36.967-16.572 36.967-37.017C36.991 16.6 20.439-0.021 0.023-0.021z"/><path fill="#9FA7A9" d="M16.206 45.004c0.455 0 0.912-0.193 1.258-0.577c0.695-0.771 0.695-2.019 0-2.789l-4.191-4.643l4.191-4.641 c0.695-0.771 0.695-2.019 0-2.79c-0.694-0.768-1.822-0.768-2.517 0L9.496 35.6c-0.694 0.771-0.694 2 0 2.789l5.451 6 C15.294 44.8 15.7 45 16.2 45.004z"/></svg>