<svg xmlns="http://www.w3.org/2000/svg" xmlns:xlink="http://www.w3.org/1999/xlink" version="1.1" id="Layer_1" x="0px" y="0px" width="37px" height="74.034px" viewBox="-0.01 -0.021 37 74.034" enable-background="new -0.01 -0.021 37 74.034" xml:space="preserve"><path opacity="0.15" fill="#9FA7A9" enable-background="new    " d="M-0.01 36.996c0 20.4 16.6 37 37 37 c0.011 0 0.022-0.001 0.033-0.001V-0.02c-0.011 0-0.022-0.001-0.033-0.001C16.541-0.021-0.011 16.552-0.01 36.996z"/><path fill="#9FA7A9" d="M22.033 44.425l5.451-6.036c0.694-0.77 0.694-2.018 0-2.789l-5.451-6.036c-0.695-0.768-1.823-0.768-2.517 0 c-0.695 0.771-0.695 2 0 2.79l4.191 4.641l-4.191 4.643c-0.695 0.77-0.695 2 0 2.789c0.346 0.4 0.8 0.6 1.3 0.6 C21.231 45 21.7 44.8 22 44.425z"/></svg>