<svg xmlns="http://www.w3.org/2000/svg" xmlns:xlink="http://www.w3.org/1999/xlink" version="1.1" id="Layer_1" x="0px" y="0px" width="18.998px" height="18.998px" viewBox="0 0 18.998 18.998" enable-background="new 0 0 18.998 18.998" xml:space="preserve"><path fill="#00A0D1" d="M9.499 0C4.252 0 0 4.3 0 9.499c0 5.2 4.3 9.5 9.5 9.499s9.499-4.252 9.499-9.499 C18.997 4.3 14.7 0 9.5 0z M14.255 7.554c0.004 0.1 0 0.2 0 0.345c0 3.521-2.469 7.581-6.984 7.6 c-1.385 0-2.676-0.439-3.762-1.196c0.191 0 0.4 0 0.6 0.035c1.149 0 2.208-0.426 3.048-1.141 c-1.073-0.021-1.98-0.791-2.293-1.851c0.149 0 0.3 0 0.5 0.048c0.225 0 0.439-0.032 0.646-0.093 C4.843 11 4 10 4 8.669c0-0.012 0-0.022 0-0.034c0.331 0.2 0.7 0.3 1.1 0.3 c-0.656-0.476-1.09-1.292-1.09-2.216c0-0.488 0.121-0.946 0.332-1.34C5.561 7 7.4 8.1 9.4 8.2 C9.368 8 9.3 7.8 9.3 7.59c0-1.471 1.099-2.665 2.453-2.665c0.706 0 1.3 0.3 1.8 0.8 c0.559-0.119 1.084-0.341 1.559-0.646c-0.184 0.622-0.571 1.144-1.079 1.474c0.497-0.064 0.97-0.208 1.41-0.42 C15.152 6.7 14.7 7.2 14.3 7.554z"/></svg>