<svg xmlns="http://www.w3.org/2000/svg" xmlns:xlink="http://www.w3.org/1999/xlink" version="1.1" id="Layer_1" x="0px" y="0px" width="54.993px" height="54.993px" viewBox="0 0 54.993 54.993" enable-background="new 0 0 54.993 54.993" xml:space="preserve"><g id="articles" display="none"><path display="inline" fill="#DB5640" d="M27.497 0c15.186 0 27.5 12.3 27.5 27.497S42.683 55 27.5 55 C12.311 55 0 42.7 0 27.497C0 12.3 12.3 0 27.5 0z"/><g display="inline"><path fill="#F9F9F3" d="M33.27 13.288l-16.508 3.778c-0.978 0.228-1.589 1.222-1.365 2.214l5.001 21.8 c0.225 1 1.2 1.6 2.2 1.385l16.508-3.778c0.977-0.228 1.59-1.221 1.364-2.214L35.45 14.7 C35.226 13.7 34.2 13.1 33.3 13.288z M33.273 15.746l4.691 20.423L22.51 39.7l-4.691-20.423L33.273 15.746z"/><path fill="#F9F9F3" d="M20.199 21.871c0.128 0.564-0.219 1.127-0.774 1.256l-3.665 0.857c-0.556 0.13-1.11-0.222-1.238-0.786l0 0 c-0.128-0.564 0.219-1.127 0.774-1.257l3.665-0.857C19.516 21 20.1 21.3 20.2 21.871L20.199 21.871z"/><path fill="#F9F9F3" d="M21.283 26.65c0.128 0.565-0.219 1.127-0.774 1.257l-3.665 0.857c-0.556 0.13-1.11-0.222-1.238-0.786l0 0 c-0.128-0.564 0.219-1.127 0.774-1.257l3.665-0.857C20.601 25.7 21.2 26.1 21.3 26.65L21.283 26.65z"/><path fill="#F9F9F3" d="M22.367 31.429c0.128 0.564-0.219 1.127-0.774 1.257l-3.665 0.857c-0.556 0.13-1.109-0.222-1.238-0.786 l0 0c-0.128-0.564 0.219-1.127 0.775-1.256l3.665-0.857C21.685 30.5 22.2 30.9 22.4 31.429L22.367 31.429z"/><path fill="#F9F9F3" d="M23.451 36.208c0.128 0.564-0.219 1.127-0.774 1.257l-3.665 0.857c-0.556 0.13-1.11-0.222-1.238-0.786l0 0 c-0.128-0.564 0.219-1.127 0.774-1.257l3.665-0.857C22.769 35.3 23.3 35.6 23.5 36.208L23.451 36.208z"/><path fill="#F9F9F3" d="M20.111 13.779l9.359 18.549l2.468-1.284l-9.359-18.549L20.111 13.779z"/><path fill="#F9F9F3" d="M29.372 32.109l2.468-1.283l0.538 4.153L29.372 32.109z"/></g></g><g id="photos" display="none"><path display="inline" fill="#5E7BA7" d="M27.497 0c15.186 0 27.5 12.3 27.5 27.497S42.683 55 27.5 55 C12.311 55 0 42.7 0 27.497C0 12.3 12.3 0 27.5 0z"/><g display="inline"><path fill="#F9F9F3" d="M16.611 40.145c-1.636 0-2.616-0.991-2.616-2.582V16.984l-2.634 0.3 c-0.847 0.092-1.459 0.837-1.365 1.661l2.492 20.75c0.094 0.8 0.9 1.4 1.7 1.327l7.793-0.845L16.611 40.145L16.611 40.1 z"/><path fill="#F9F9F3" d="M33.477 13.993H17.44c-0.829 0-1.449 0.939-1.449 1.76v20.738c0 0.8 0.7 1.5 1.5 1.489h15.983 c0.829 0 1.504-0.668 1.504-1.489V15.482C34.981 14.7 34.3 14 33.5 13.993z M32.988 15.99l-0.001 14.991H18.004V15.99 H32.988z"/><path fill="#F9F9F3" d="M43.666 17.727l-6.454-0.739l-0.04 2.569l5.447 0.088l-1.572 14.141l-3.875-0.082v4.287 c0 1.194-1.283 2.144-2.176 2.144l5.787 0.855c0.83 0.1 1.583-0.495 1.679-1.315l2.535-20.288 C45.092 18.6 44.5 17.8 43.7 17.727z"/></g></g><g id="audio" display="none"><path display="inline" fill="#E6BC3C" d="M27.497 0c15.186 0 27.5 12.3 27.5 27.497S42.683 55 27.5 55 C12.311 55 0 42.7 0 27.497C0 12.3 12.3 0 27.5 0z"/><g display="inline"><path fill="#F9F9F3" d="M40.798 40.994H14.195c-1.488 0-2.699-1.217-2.699-2.713v-14.52c0-1.496 1.211-2.713 2.699-2.713h26.603 c1.488 0 2.7 1.2 2.7 2.713v14.52C43.497 39.8 42.3 41 40.8 40.994z M14.383 23 c-0.493 0-0.894 0.397-0.894 0.884V38.11c0 0.5 0.4 0.9 0.9 0.884H40.61c0.493 0 0.894-0.396 0.894-0.884V23.873 c0-0.488-0.401-0.884-0.894-0.884C40.61 23 14.4 23 14.4 22.989z"/><path fill="#F9F9F3" d="M28.888 10.777l-1.115-1.13L15.939 21.299l1.163 1.13L28.888 10.777z"/><path fill="#F9F9F3" d="M30.515 9.129L29.4 7.998l-1.226 1.243l1.115 1.13L30.515 9.129z"/><path fill="#F9F9F3" d="M17.501 36.487c0 0.827-0.674 1.499-1.506 1.499l0 0c-0.832 0-1.506-0.671-1.506-1.499l0 0 c0-0.828 0.674-1.499 1.506-1.499l0 0C16.827 35 17.5 35.7 17.5 36.487L17.501 36.487z"/><path fill="#F9F9F3" d="M21.506 36.487c0 0.827-0.674 1.499-1.506 1.499l0 0c-0.832 0-1.507-0.671-1.507-1.499l0 0 c0-0.828 0.675-1.499 1.507-1.499l0 0C20.832 35 21.5 35.7 21.5 36.487L21.506 36.487z"/><path fill="#F9F9F3" d="M25.511 36.488c0 0.828-0.674 1.499-1.506 1.499l0 0c-0.832 0-1.506-0.671-1.506-1.499l0 0 c0-0.827 0.675-1.499 1.506-1.499l0 0C24.837 35 25.5 35.7 25.5 36.488L25.511 36.488z"/><path fill="#F9F9F3" d="M35.177 30.953c0 0.878-0.702 1.589-1.569 1.589l0 0c-0.866 0-1.569-0.711-1.569-1.589l0 0 c0-0.878 0.702-1.589 1.569-1.589l0 0C34.474 29.4 35.2 30.1 35.2 30.953L35.177 30.953z"/><path fill="#F9F9F3" d="M33.497 37.987c-3.864 0-7.008-3.14-7.008-7s3.144-7 7.008-7c3.865 0 7 3.1 7 7 C40.505 34.8 37.4 38 33.5 37.987z M33.496 25.999c-2.752 0-4.991 2.241-4.991 4.996c0 2.8 2.2 5 5 5 s4.991-2.241 4.991-4.996S36.248 26 33.5 25.999z"/><path fill="#F9F9F3" d="M33.976 30.371l-3.61-2.459l2.659 3.58L33.976 30.371z"/><path fill="#F9F9F3" d="M33.255 31.529l3.61 2.46l-2.659-3.58L33.255 31.529z"/><path fill="#F9F9F3" d="M14.483 25.996h12.001v1.002H14.483V25.996z"/><path fill="#F9F9F3" d="M14.482 29.001h11.009v1.002H14.482V29.001z"/><path fill="#F9F9F3" d="M14.482 32.005l11.009-0.003v0.988l-11.009-0.002C14.482 33 14.5 32 14.5 32.005z"/></g></g><g id="video"><path fill="#65B3B9" d="M27.497 0c15.186 0 27.5 12.3 27.5 27.497S42.683 55 27.5 55 C12.311 55 0 42.7 0 27.497C0 12.3 12.3 0 27.5 0z"/><g><path fill="#F9F9F3" d="M40.18 38.025H14.813c-1.502 0-2.724-1.163-2.724-2.592V20.994c0-1.429 1.222-2.593 2.724-2.593h25.369 c1.502 0 2.7 1.2 2.7 2.593v14.438C42.905 36.9 41.7 38 40.2 38.025z M14.872 20.3 c-0.499 0-0.904 0.378-0.904 0.842v14.187c0 0.5 0.4 0.8 0.9 0.842h25.252c0.499 0 0.904-0.377 0.904-0.842V21.126 c0-0.464-0.405-0.842-0.904-0.842C40.123 20.3 14.9 20.3 14.9 20.285z"/><path fill="#F9F9F3" d="M36.461 19.107c-3.229 0-4.305 0-7.354 0c0-1.452 1.646-2.629 3.677-2.629 C34.816 16.5 36.5 17.7 36.5 19.107z"/><path fill="#F9F9F3" d="M34.317 17.255c-1.441 0-1.922 0-3.284 0c0-0.868 0.735-1.572 1.642-1.572 C33.581 15.7 34.3 16.4 34.3 17.255z"/><path fill="#F9F9F3" d="M31.793 16.403l-1.416-2.705l1.059-0.793l1.416 2.704L31.793 16.403z"/><path fill="#F9F9F3" d="M37.29 28.695c0 0.516-0.417 0.934-0.93 0.934c-0.514 0-0.93-0.418-0.93-0.934 c0-0.516 0.417-0.935 0.93-0.935C36.873 27.8 37.3 28.2 37.3 28.695z"/><path fill="#F9F9F3" d="M40.088 28.695c0 0.516-0.414 0.934-0.923 0.934c-0.51 0-0.923-0.418-0.923-0.934 c0-0.516 0.413-0.935 0.923-0.935C39.675 27.8 40.1 28.2 40.1 28.695z"/><path fill="#F9F9F3" d="M40.09 24.484c0 1.287-1.045 2.329-2.333 2.329c-1.288 0-2.333-1.042-2.333-2.329s1.045-2.329 2.333-2.329 C39.046 22.2 40.1 23.2 40.1 24.484z"/><path fill="#F9F9F3" d="M16.719 38.161l-0.605 6.865c-0.084 0.5 1.1 0.7 1.3 0.08l2.762-7.321L16.719 38.161z"/><path fill="#F9F9F3" d="M38.319 38.161l0.605 6.865c0.084 0.483-1.092 0.724-1.261 0.08l-2.762-7.321L38.319 38.161z"/><path fill="#F9F9F3" d="M25.001 35.215h-0.613c-3.424 0-5.729-0.149-7.048-0.455c-1.021-0.236-1.533-0.488-1.866-1.355 c-0.152-0.396-0.597-1.55-0.597-5.043v-0.308c0-3.491 0.444-4.647 0.59-5.026c0.34-0.884 0.851-1.136 1.873-1.372 c1.319-0.305 3.624-0.454 7.048-0.454h0.613c3.425 0 5.7 0.1 7 0.454c1.021 0.2 1.5 0.5 1.9 1.4 c0.152 0.4 0.6 1.6 0.6 5.043v0.308c0 3.492-0.445 4.647-0.59 5.026c-0.339 0.884-0.851 1.136-1.873 1.4 C30.731 35.1 28.4 35.2 25 35.215z M24.396 22.469c-3.223 0-5.453 0.136-6.631 0.4 c-0.774 0.177-0.82 0.244-0.963 0.611c-0.134 0.345-0.523 1.344-0.523 4.568v0.301c0 3.2 0.4 4.2 0.5 4.6 c0.149 0.4 0.2 0.5 1 0.627c1.178 0.3 3.4 0.4 6.6 0.406H25c3.223 0 5.454-0.136 6.631-0.406 c0.774-0.177 0.82-0.243 0.963-0.61c0.134-0.346 0.523-1.343 0.523-4.568v-0.301c0-3.224-0.389-4.223-0.516-4.551 c-0.149-0.384-0.195-0.451-0.969-0.628c-1.177-0.27-3.408-0.406-6.631-0.406H24.396z"/><path fill="#F9F9F3" d="M35.421 32.426h4.695v0.938h-4.695V32.426z"/><path fill="#F9F9F3" d="M35.421 30.544h4.695v0.937h-4.695V30.544z"/><path fill="#F9F9F3" d="M31.971 12.917c0 0.729-0.617 1.32-1.379 1.32c-0.761 0-1.379-0.591-1.379-1.32 c0-0.729 0.617-1.32 1.379-1.32C31.353 11.6 32 12.2 32 12.917z"/><path fill="#F9F9F3" d="M32.783 15.655l2.581-4.792l1.141 0.681l-2.581 4.792L32.783 15.655z"/><path fill="#F9F9F3" d="M36.518 12.058c-0.715 0.249-1.507-0.104-1.768-0.788c-0.261-0.685 0.107-1.442 0.824-1.692 c0.715-0.249 1.5 0.1 1.8 0.788C37.603 11.1 37.2 11.8 36.5 12.058z"/></g></g><g id="quote" display="none"><path display="inline" fill="#786D5D" d="M27.497 0c15.186 0 27.5 12.3 27.5 27.497S42.683 55 27.5 55 C12.311 55 0 42.7 0 27.497C0 12.3 12.3 0 27.5 0z"/><g display="inline"><path fill="#F9F9F3" d="M44.975 34.128l-1.371-13.229c-0.099-0.954-0.979-1.652-1.962-1.556l-29.058 3.1 c-0.983 0.096-1.702 0.95-1.603 1.903l1.371 13.23c0.099 1 1 1.7 2 1.556l29.057-3.083 C44.354 35.9 45.1 35.1 45 34.128z M19.043 30.566c-0.358 0.416-0.816 0.646-1.374 0.7 c-0.651 0.053-1.236-0.16-1.754-0.641s-0.815-1.157-0.891-2.029c-0.088-1.016 0.154-1.952 0.728-2.81s1.533-1.587 2.879-2.189 l0.048 0.553c-0.782 0.352-1.374 0.852-1.779 1.503c-0.404 0.651-0.577 1.307-0.52 1.969c0.012 0.1 0 0.2 0.1 0.3 c0.035 0 0.1 0.1 0.1 0.059s0.095-0.034 0.168-0.093c0.233-0.193 0.539-0.305 0.92-0.336 c0.442-0.036 0.8 0.1 1.2 0.429c0.371 0.3 0.6 0.7 0.6 1.205C19.558 29.7 19.4 30.2 19 30.566z M25.068 30.109c-0.358 0.416-0.816 0.647-1.375 0.692c-0.651 0.053-1.236-0.16-1.753-0.64c-0.518-0.481-0.815-1.157-0.891-2.03 c-0.088-1.016 0.155-1.952 0.728-2.809c0.574-0.858 1.533-1.587 2.878-2.19l0.048 0.553c-0.782 0.352-1.374 0.853-1.778 1.5 c-0.404 0.651-0.577 1.307-0.52 1.969c0.012 0.1 0 0.2 0.1 0.31c0.035 0 0.1 0.1 0.1 0.1 c0.039-0.003 0.095-0.034 0.168-0.093c0.233-0.193 0.539-0.306 0.919-0.336c0.442-0.036 0.8 0.1 1.2 0.4 c0.372 0.3 0.6 0.7 0.6 1.205C25.583 29.2 25.4 29.7 25.1 30.109z"/><path fill="#F9F9F3" d="M26.107 18.963l-11.076-2.001c-0.972-0.174-1.907 0.451-2.087 1.394l-0.362 1.905L26.107 18.963z"/><path fill="#F9F9F3" d="M35.435 38.686l5.129 1.204c0.971 0.2 1.907-0.451 2.087-1.394l0.126-0.662L35.435 38.686z"/></g></g><g id="link" display="none"><path display="inline" fill="#87B44E" d="M27.497 0c15.186 0 27.5 12.3 27.5 27.497S42.683 55 27.5 55 C12.311 55 0 42.7 0 27.497C0 12.3 12.3 0 27.5 0z"/><g display="inline"><path fill="#F9F9F3" d="M19.075 21.938c0 1.634-1.354 2.96-3.024 2.96s-3.024-1.325-3.024-2.96c0-1.635 1.354-2.96 3.024-2.96 S19.075 20.3 19.1 21.938z"/><path fill="#F9F9F3" d="M17.487 24.227l5.677 6.484h-2.506l-3.071-3.184v2.282l4.732 8.17h-3.166l-2.992-5.843l-3.105 5.843H9.891 l4.676-8.233v-2.282l-3.082 3.247H8.98l6.043-6.484C15.023 24.2 17.5 24.2 17.5 24.227z"/><path fill="#F9F9F3" d="M30.985 21.938c0 1.634-1.354 2.96-3.024 2.96s-3.024-1.325-3.024-2.96c0-1.635 1.354-2.96 3.024-2.96 S30.985 20.3 31 21.938z"/><path fill="#F9F9F3" d="M29.396 24.227l5.677 6.484h-2.505l-3.071-3.184v2.282l4.732 8.17h-3.166l-2.992-5.843l-3.105 5.843H21.8 l4.676-8.233v-2.282l-3.082 3.247H20.89l6.043-6.484C26.933 24.2 29.4 24.2 29.4 24.227z"/><path fill="#F9F9F3" d="M42.894 21.938c0 1.634-1.354 2.96-3.024 2.96s-3.024-1.325-3.024-2.96c0-1.635 1.354-2.96 3.024-2.96 S42.894 20.3 42.9 21.938z"/><path fill="#F9F9F3" d="M41.305 24.227l5.677 6.484h-2.505l-3.071-3.184v2.282l4.732 8.17h-3.166l-2.992-5.843l-3.105 5.843H33.71 l4.676-8.233v-2.282l-3.082 3.247h-2.505l6.043-6.484C38.842 24.2 41.3 24.2 41.3 24.227z"/></g></g></svg>