<svg xmlns="http://www.w3.org/2000/svg" xmlns:xlink="http://www.w3.org/1999/xlink" version="1.1" id="Layer_1" x="0px" y="0px" width="63.345px" height="74px" viewBox="-4.176 -9.504 63.345 74" enable-background="new -4.176 -9.504 63.345 74" xml:space="preserve"><g id="articles" display="none"><path display="inline" fill="#DB5640" d="M27.497 0c15.186 0 27.5 12.3 27.5 27.497S42.683 55 27.5 55 C12.311 55 0 42.7 0 27.497C0 12.3 12.3 0 27.5 0z"/><g display="inline"><path fill="#F9F9F3" d="M33.27 13.288l-16.508 3.778c-0.978 0.228-1.589 1.222-1.365 2.214l5.001 21.8 c0.225 1 1.2 1.6 2.2 1.385l16.508-3.778c0.977-0.228 1.59-1.221 1.364-2.214L35.45 14.7 C35.226 13.7 34.2 13.1 33.3 13.288z M33.273 15.746l4.691 20.423L22.51 39.7l-4.691-20.423L33.273 15.746z"/><path fill="#F9F9F3" d="M20.199 21.871c0.128 0.564-0.219 1.127-0.774 1.256l-3.665 0.857c-0.556 0.13-1.11-0.222-1.238-0.786l0 0 c-0.128-0.564 0.219-1.127 0.774-1.257l3.665-0.857C19.516 21 20.1 21.3 20.2 21.871L20.199 21.871z"/><path fill="#F9F9F3" d="M21.283 26.65c0.128 0.565-0.219 1.127-0.774 1.257l-3.665 0.857c-0.556 0.13-1.11-0.222-1.238-0.786l0 0 c-0.128-0.564 0.219-1.127 0.774-1.257l3.665-0.857C20.601 25.7 21.2 26.1 21.3 26.65L21.283 26.65z"/><path fill="#F9F9F3" d="M22.367 31.429c0.128 0.564-0.219 1.127-0.774 1.257l-3.665 0.857c-0.556 0.13-1.109-0.222-1.238-0.786 l0 0c-0.128-0.564 0.219-1.127 0.775-1.256l3.665-0.857C21.685 30.5 22.2 30.9 22.4 31.429L22.367 31.429z"/><path fill="#F9F9F3" d="M23.451 36.208c0.128 0.564-0.219 1.127-0.774 1.257l-3.665 0.857c-0.556 0.13-1.11-0.222-1.238-0.786l0 0 c-0.128-0.564 0.219-1.127 0.774-1.257l3.665-0.857C22.769 35.3 23.3 35.6 23.5 36.208L23.451 36.208z"/><path fill="#F9F9F3" d="M20.111 13.779l9.359 18.549l2.468-1.284l-9.359-18.549L20.111 13.779z"/><path fill="#F9F9F3" d="M29.372 32.109l2.468-1.283l0.538 4.153L29.372 32.109z"/></g></g><g id="photos" display="none"><path display="inline" fill="#5E7BA7" d="M27.497 0c15.186 0 27.5 12.3 27.5 27.497S42.683 55 27.5 55 C12.311 55 0 42.7 0 27.497C0 12.3 12.3 0 27.5 0z"/><g display="inline"><path fill="#F9F9F3" d="M16.611 40.145c-1.636 0-2.616-0.991-2.616-2.582V16.984l-2.634 0.3 c-0.847 0.092-1.459 0.837-1.365 1.661l2.492 20.75c0.094 0.8 0.9 1.4 1.7 1.327l7.793-0.845L16.611 40.145L16.611 40.1 z"/><path fill="#F9F9F3" d="M33.477 13.993H17.44c-0.829 0-1.449 0.939-1.449 1.76v20.738c0 0.8 0.7 1.5 1.5 1.489h15.983 c0.829 0 1.504-0.668 1.504-1.489V15.482C34.981 14.7 34.3 14 33.5 13.993z M32.988 15.99l-0.001 14.991H18.004V15.99 H32.988z"/><path fill="#F9F9F3" d="M43.666 17.727l-6.454-0.739l-0.04 2.569l5.447 0.088l-1.572 14.141l-3.875-0.082v4.287 c0 1.194-1.283 2.144-2.176 2.144l5.787 0.855c0.83 0.1 1.583-0.495 1.679-1.315l2.535-20.288 C45.092 18.6 44.5 17.8 43.7 17.727z"/></g></g><g id="audio" display="none"><path display="inline" fill="#E6BC3C" d="M27.497 0c15.186 0 27.5 12.3 27.5 27.497S42.683 55 27.5 55 C12.311 55 0 42.7 0 27.497C0 12.3 12.3 0 27.5 0z"/><g display="inline"><path fill="#F9F9F3" d="M40.798 40.994H14.195c-1.488 0-2.699-1.217-2.699-2.713v-14.52c0-1.496 1.211-2.713 2.699-2.713h26.603 c1.488 0 2.7 1.2 2.7 2.713v14.52C43.497 39.8 42.3 41 40.8 40.994z M14.383 23 c-0.493 0-0.894 0.397-0.894 0.884V38.11c0 0.5 0.4 0.9 0.9 0.884H40.61c0.493 0 0.894-0.396 0.894-0.884V23.873 c0-0.488-0.401-0.884-0.894-0.884C40.61 23 14.4 23 14.4 22.989z"/><path fill="#F9F9F3" d="M28.888 10.777l-1.115-1.13L15.939 21.299l1.163 1.13L28.888 10.777z"/><path fill="#F9F9F3" d="M30.515 9.129L29.4 7.998l-1.226 1.243l1.115 1.13L30.515 9.129z"/><path fill="#F9F9F3" d="M17.501 36.487c0 0.827-0.674 1.499-1.506 1.499l0 0c-0.832 0-1.506-0.671-1.506-1.499l0 0 c0-0.828 0.674-1.499 1.506-1.499l0 0C16.827 35 17.5 35.7 17.5 36.487L17.501 36.487z"/><path fill="#F9F9F3" d="M21.506 36.487c0 0.827-0.674 1.499-1.506 1.499l0 0c-0.832 0-1.507-0.671-1.507-1.499l0 0 c0-0.828 0.675-1.499 1.507-1.499l0 0C20.832 35 21.5 35.7 21.5 36.487L21.506 36.487z"/><path fill="#F9F9F3" d="M25.511 36.488c0 0.828-0.674 1.499-1.506 1.499l0 0c-0.832 0-1.506-0.671-1.506-1.499l0 0 c0-0.827 0.675-1.499 1.506-1.499l0 0C24.837 35 25.5 35.7 25.5 36.488L25.511 36.488z"/><path fill="#F9F9F3" d="M35.177 30.953c0 0.878-0.702 1.589-1.569 1.589l0 0c-0.866 0-1.569-0.711-1.569-1.589l0 0 c0-0.878 0.702-1.589 1.569-1.589l0 0C34.474 29.4 35.2 30.1 35.2 30.953L35.177 30.953z"/><path fill="#F9F9F3" d="M33.497 37.987c-3.864 0-7.008-3.14-7.008-7s3.144-7 7.008-7c3.865 0 7 3.1 7 7 C40.505 34.8 37.4 38 33.5 37.987z M33.496 25.999c-2.752 0-4.991 2.241-4.991 4.996c0 2.8 2.2 5 5 5 s4.991-2.241 4.991-4.996S36.248 26 33.5 25.999z"/><path fill="#F9F9F3" d="M33.976 30.371l-3.61-2.459l2.659 3.58L33.976 30.371z"/><path fill="#F9F9F3" d="M33.255 31.529l3.61 2.46l-2.659-3.58L33.255 31.529z"/><path fill="#F9F9F3" d="M14.483 25.996h12.001v1.002H14.483V25.996z"/><path fill="#F9F9F3" d="M14.482 29.001h11.009v1.002H14.482V29.001z"/><path fill="#F9F9F3" d="M14.482 32.005l11.009-0.003v0.988l-11.009-0.002C14.482 33 14.5 32 14.5 32.005z"/></g></g><g id="video"><g><path fill="#65B3B9" d="M53.568 49.138H1.424c-3.086 0-5.599-2.391-5.599-5.328V14.13c0-2.937 2.511-5.329 5.599-5.329h52.146 c3.086 0 5.6 2.4 5.6 5.329v29.679C59.169 46.7 56.7 49.1 53.6 49.138z M1.545 12.7 c-1.026 0-1.858 0.778-1.858 1.73v29.162c0 1 0.8 1.7 1.9 1.73h51.906c1.026 0 1.858-0.776 1.858-1.73V14.402 c0-0.955-0.834-1.73-1.858-1.73H1.545z"/><path fill="#65B3B9" d="M45.924 10.251c-6.636 0-8.848 0-15.117 0c0-2.986 3.382-5.404 7.558-5.404S45.924 7.3 45.9 10.251z"/><path fill="#65B3B9" d="M41.516 6.444c-2.962 0-3.951 0-6.749 0c0-1.783 1.511-3.23 3.375-3.23 C40.003 3.2 41.5 4.7 41.5 6.444z"/><path fill="#65B3B9" d="M36.329 4.694l-2.911-5.56l2.177-1.63l2.911 5.558L36.329 4.694z"/><path fill="#65B3B9" d="M47.626 29.961c0 1.062-0.856 1.92-1.913 1.92c-1.057 0-1.913-0.86-1.913-1.92 c0-1.062 0.856-1.922 1.913-1.922C46.77 28 47.6 28.9 47.6 29.961z"/><path fill="#65B3B9" d="M53.377 29.961c0 1.062-0.851 1.92-1.896 1.92c-1.048 0-1.896-0.86-1.896-1.92 c0-1.062 0.849-1.922 1.896-1.922C52.53 28 53.4 28.9 53.4 29.961z"/><path fill="#65B3B9" d="M53.382 21.305c0 2.647-2.148 4.787-4.797 4.787c-2.649 0-4.797-2.143-4.797-4.787 s2.148-4.787 4.797-4.787C51.236 16.5 53.4 18.7 53.4 21.305z"/><path fill="#65B3B9" d="M5.342 49.417L4.099 63.529c-0.173 1 2.2 1.5 2.6 0.164l5.676-15.048L5.342 49.417z"/><path fill="#65B3B9" d="M49.742 49.417l1.245 14.11c0.173 0.993-2.245 1.487-2.592 0.164l-5.676-15.048L49.742 49.417z"/><path fill="#65B3B9" d="M22.366 43.361h-1.259c-7.038 0-11.776-0.307-14.487-0.934c-2.099-0.485-3.15-1.002-3.836-2.785 c-0.311-0.815-1.225-3.188-1.225-10.366v-0.633c0-7.176 0.913-9.551 1.214-10.33c0.699-1.816 1.748-2.334 3.849-2.82 c2.71-0.628 7.448-0.933 14.487-0.933h1.259c7.04 0 11.8 0.3 14.5 0.933c2.099 0.5 3.1 1 3.8 2.8 c0.312 0.8 1.2 3.2 1.2 10.365v0.633c0 7.178-0.914 9.551-1.214 10.33c-0.697 1.818-1.748 2.334-3.849 2.8 C34.146 43.1 29.4 43.4 22.4 43.361z M21.124 17.161c-6.625 0-11.21 0.281-13.63 0.8 c-1.592 0.363-1.687 0.502-1.978 1.256c-0.276 0.708-1.075 2.763-1.075 9.39v0.619c0 6.6 0.8 8.7 1.1 9.4 c0.307 0.8 0.4 0.9 2 1.289c2.42 0.6 7 0.8 13.6 0.836h1.243c6.625 0 11.212-0.281 13.63-0.836 c1.592-0.365 1.687-0.498 1.978-1.254c0.276-0.71 1.075-2.761 1.075-9.39v-0.619c0-6.627-0.799-8.682-1.062-9.356 c-0.307-0.788-0.402-0.927-1.993-1.29c-2.418-0.555-7.005-0.836-13.63-0.836h-1.243C21.124 17.2 21.1 17.2 21.1 17.161z"/><path fill="#65B3B9" d="M43.784 37.629h9.651v1.927h-9.651V37.629z"/><path fill="#65B3B9" d="M43.784 33.759h9.651v1.926h-9.651V33.759z"/><path fill="#65B3B9" d="M36.693-2.473c0 1.497-1.268 2.712-2.836 2.712c-1.564 0-2.835-1.216-2.835-2.712 c0-1.5 1.268-2.712 2.835-2.712C35.424-5.187 36.693-3.972 36.693-2.473z"/><path fill="#65B3B9" d="M38.364 3.155l5.304-9.85l2.345 1.4l-5.304 9.85L38.364 3.155z"/><path fill="#65B3B9" d="M46.04-4.24c-1.471 0.513-3.099-0.214-3.634-1.621s0.221-2.964 1.694-3.479 c1.471-0.513 3.1 0.2 3.6 1.621C48.269-6.309 47.511-4.754 46.04-4.24z"/></g></g><g id="quote" display="none"><path display="inline" fill="#786D5D" d="M27.497 0c15.186 0 27.5 12.3 27.5 27.497S42.683 55 27.5 55 C12.311 55 0 42.7 0 27.497C0 12.3 12.3 0 27.5 0z"/><g display="inline"><path fill="#F9F9F3" d="M44.975 34.128l-1.371-13.229c-0.099-0.954-0.979-1.652-1.962-1.556l-29.058 3.1 c-0.983 0.096-1.702 0.95-1.603 1.903l1.371 13.23c0.099 1 1 1.7 2 1.556l29.057-3.083 C44.354 35.9 45.1 35.1 45 34.128z M19.043 30.566c-0.358 0.416-0.816 0.646-1.374 0.7 c-0.651 0.053-1.236-0.16-1.754-0.641s-0.815-1.157-0.891-2.029c-0.088-1.016 0.154-1.952 0.728-2.81s1.533-1.587 2.879-2.189 l0.048 0.553c-0.782 0.352-1.374 0.852-1.779 1.503c-0.404 0.651-0.577 1.307-0.52 1.969c0.012 0.1 0 0.2 0.1 0.3 c0.035 0 0.1 0.1 0.1 0.059s0.095-0.034 0.168-0.093c0.233-0.193 0.539-0.305 0.92-0.336 c0.442-0.036 0.8 0.1 1.2 0.429c0.371 0.3 0.6 0.7 0.6 1.205C19.558 29.7 19.4 30.2 19 30.566z M25.068 30.109c-0.358 0.416-0.816 0.647-1.375 0.692c-0.651 0.053-1.236-0.16-1.753-0.64c-0.518-0.481-0.815-1.157-0.891-2.03 c-0.088-1.016 0.155-1.952 0.728-2.809c0.574-0.858 1.533-1.587 2.878-2.19l0.048 0.553c-0.782 0.352-1.374 0.853-1.778 1.5 c-0.404 0.651-0.577 1.307-0.52 1.969c0.012 0.1 0 0.2 0.1 0.31c0.035 0 0.1 0.1 0.1 0.1 c0.039-0.003 0.095-0.034 0.168-0.093c0.233-0.193 0.539-0.306 0.919-0.336c0.442-0.036 0.8 0.1 1.2 0.4 c0.372 0.3 0.6 0.7 0.6 1.205C25.583 29.2 25.4 29.7 25.1 30.109z"/><path fill="#F9F9F3" d="M26.107 18.963l-11.076-2.001c-0.972-0.174-1.907 0.451-2.087 1.394l-0.362 1.905L26.107 18.963z"/><path fill="#F9F9F3" d="M35.435 38.686l5.129 1.204c0.971 0.2 1.907-0.451 2.087-1.394l0.126-0.662L35.435 38.686z"/></g></g><g id="link" display="none"><path display="inline" fill="#87B44E" d="M27.497 0c15.186 0 27.5 12.3 27.5 27.497S42.683 55 27.5 55 C12.311 55 0 42.7 0 27.497C0 12.3 12.3 0 27.5 0z"/><g display="inline"><path fill="#F9F9F3" d="M19.075 21.938c0 1.634-1.354 2.96-3.024 2.96s-3.024-1.325-3.024-2.96c0-1.635 1.354-2.96 3.024-2.96 S19.075 20.3 19.1 21.938z"/><path fill="#F9F9F3" d="M17.487 24.227l5.677 6.484h-2.506l-3.071-3.184v2.282l4.732 8.17h-3.166l-2.992-5.843l-3.105 5.843H9.891 l4.676-8.233v-2.282l-3.082 3.247H8.98l6.043-6.484C15.023 24.2 17.5 24.2 17.5 24.227z"/><path fill="#F9F9F3" d="M30.985 21.938c0 1.634-1.354 2.96-3.024 2.96s-3.024-1.325-3.024-2.96c0-1.635 1.354-2.96 3.024-2.96 S30.985 20.3 31 21.938z"/><path fill="#F9F9F3" d="M29.396 24.227l5.677 6.484h-2.505l-3.071-3.184v2.282l4.732 8.17h-3.166l-2.992-5.843l-3.105 5.843H21.8 l4.676-8.233v-2.282l-3.082 3.247H20.89l6.043-6.484C26.933 24.2 29.4 24.2 29.4 24.227z"/><path fill="#F9F9F3" d="M42.894 21.938c0 1.634-1.354 2.96-3.024 2.96s-3.024-1.325-3.024-2.96c0-1.635 1.354-2.96 3.024-2.96 S42.894 20.3 42.9 21.938z"/><path fill="#F9F9F3" d="M41.305 24.227l5.677 6.484h-2.505l-3.071-3.184v2.282l4.732 8.17h-3.166l-2.992-5.843l-3.105 5.843H33.71 l4.676-8.233v-2.282l-3.082 3.247h-2.505l6.043-6.484C38.842 24.2 41.3 24.2 41.3 24.227z"/></g></g></svg>